<?xml version="1.0" encoding="UTF-8"?>
<svg width="700pt" height="700pt" version="1.1" viewBox="0 0 700 700" xmlns="http://www.w3.org/2000/svg">
 <path d="m603.42 385c0-0.85938 0.015625-1.6445-0.24609-2.4688-0.085937-0.29688 0.035156-0.59375-0.085937-0.875-0.22656-0.55859-0.76953-0.85938-1.1016-1.3281-0.31641-0.48828-0.38672-1.0859-0.80469-1.5039l-245-245c-2.5039-2.5039-6.2812-3.2188-9.5391-1.8906-3.2539 1.3281-5.3906 4.5312-5.3906 8.0664v236.25h-17.5v-201.25c0-3.7617-2.4141-7.1055-5.9844-8.3125-3.5547-1.1367-7.5078 0.035156-9.7656 3.0625l-154.88 206.5h-48.125c-3.5352 0-6.7383 2.1367-8.0859 5.4062-1.3477 3.2734-0.59375 7.0352 1.8906 9.5391l140 140c1.6445 1.6289 3.8672 2.5547 6.1953 2.5547h210c2.3281 0 4.5508-0.92578 6.1953-2.5547l140-140c0.42188-0.42187 0.48828-1.0156 0.80469-1.5039 0.33203-0.48828 0.85938-0.78906 1.1016-1.3281 0.12109-0.28125 0-0.59375 0.085938-0.875 0.23047-0.84375 0.23047-1.6289 0.23047-2.4883zm-244.67-223.88 215.13 215.13h-215.13zm-52.5 40.129v175h-131.25zm145.13 315h-202.76l-122.5-122.5h447.76z"/>
</svg>
