<svg id="ehEeB8ucWyi1" xmlns="http://www.w3.org/2000/svg" xmlns:xlink="http://www.w3.org/1999/xlink" viewBox="0 0 700 700" shape-rendering="geometricPrecision" text-rendering="geometricPrecision" style="background-color:transparent"><defs><linearGradient id="ehEeB8ucWyi2-fill" x1="0" y1="0.5" x2="1" y2="0.5" spreadMethod="pad" gradientUnits="objectBoundingBox" gradientTransform="translate(0 0)"><stop id="ehEeB8ucWyi2-fill-0" offset="0%" stop-color="#b8dbfa"/><stop id="ehEeB8ucWyi2-fill-1" offset="100%" stop-color="#546baa"/></linearGradient></defs><path d="M350,290.858926c0,0-2.7461,237.636854,0,237.636854h159.25932c3.5352,0,6.7383-2.1367,8.0859-5.4062c1.3477-3.2734.59375-7.0352-1.8906-9.5391l-30.59-30.555h47.145c3.5352,0,6.7383-2.1367,8.0859-5.4062c1.3477-3.2734.59375-7.0352-1.8906-9.5391L538.2,468.05l-88.445-88.426v-22.105L507.54,369.07c.55859.12109,1.1367.17578,1.7148.17578c3.9531,0,7.5078-2.6602,8.4883-6.6328l22.766-90.984c.73438-2.9766-.14062-6.1406-2.3086-8.3125l-21.945-21.941-2.1875-3.832-18.883-151.13c-.52344-4.1836-3.9531-7.4023-8.1562-7.6641-4.5312-.50781-7.9961,2.5391-9.0312,6.6133l-15.453,62.02-36.699-64.242c-1.8711-3.3086-5.7383-5.0039-9.4492-4.1992-3.7266.80469-6.8594,7.7539-6.8594,7.7539l-17.898,196.8M483.653,135.17l7.8398,62.773-16.363-28.684ZM424.45,115.936l67.586,118.3l5.9688,10.484c0,.015625.035156.015625.035156.015625l3.6211,6.3516c.36719.68359.85938,1.2969,1.3984,1.8359l19.266,19.266-19.531,78.086-97.879-19.566ZM364.572773,305.419862L390.0234,300.996l-3.2539,35.961c-.38672,4.4453,2.6094,8.4883,7,9.3633l38.465,7.6992v50.297l-42.668,106.68c0,0-17.495609-.766694-24.993727-.0005ZM408.414,510.996l22.801-56.926l56.91,56.926Zm58.957-45.5L438.305,436.41l10.832-27.16c.40234-1.0508.61328-2.1367.61328-3.2539v-1.6289l61.129,61.109-43.508.003906Z" transform="matrix(-1 0 0 1 700.026336 0)" fill="url(#ehEeB8ucWyi2-fill)"/></svg>
