<svg id="eWj3D8GV2U61" xmlns="http://www.w3.org/2000/svg" xmlns:xlink="http://www.w3.org/1999/xlink" viewBox="0 0 700 700" shape-rendering="geometricPrecision" text-rendering="geometricPrecision" style="background-color:transparent"><defs><linearGradient id="eWj3D8GV2U65-fill" x1="0" y1="0.5" x2="1" y2="0.5" spreadMethod="pad" gradientUnits="objectBoundingBox" gradientTransform="translate(0 0)"><stop id="eWj3D8GV2U65-fill-0" offset="1%" stop-color="#ebf6ff"/><stop id="eWj3D8GV2U65-fill-1" offset="44%" stop-color="#b8dbfa"/><stop id="eWj3D8GV2U65-fill-2" offset="100%" stop-color="#546baa"/></linearGradient></defs><g transform="matrix(1.496201 0 0 1.349905-173.676877-106.22937)"><g><g transform="translate(0 37.057042)"><path d="M444.488195,379.488662l5.262085-21.969661L507.54,369.07c.55859.12109,1.1367.17578,1.7148.17578c3.9531,0,5.224063,1.203203,6.204563-2.769397l25.15714-95.993787c.73438-2.9766.693681-4.375454-1.474299-6.547354l-33.476928-14.728296-1.032763-10.77516L490.94206,86.880399c-.52344-4.1836.28984-7.869219-3.91326-8.131019-4.5312-.50781-3.887233,2.032594-4.922333,6.106794l-17.442263,86.680775-42.046875-82.591173c0,0-5.507157-10.748615-5.472087-10.751141-3.7266.80469-3.954687,2.620152-4.302387,6.420952L391.61776,285.35472L281.759,283.49538c-2.5898,0-5.0586,1.1367-6.7188,3.1484l-113.75,136.5c-2.5898,3.1328-2.7109,7.6133-.29688,10.852l68.266,91c1.6641,2.2031,4.2539,3.5,7,3.5h273c3.5352,0,5.466514-1.381278,6.814114-4.650778c1.3477-3.2734-2.764445-6.965736-5.248795-9.469636l-49.535493-45.802112L532.00962,482.99548c3.5352,0,5.819551.447856,7.167151-2.821644c1.3477-3.2734-2.222922-6.882005-4.707272-9.385905M486.989601,82.207344l14.75151,162.273416-34.38339-67.65833Zm51.765266,182.380271l-27.09753,100.822188-121.481543-26.103991L417.361718,78.606444l70.589934,138.769892l6.981543,13.629836l3.510978,7.016893c0,.015625,3.082878,6.004499,3.082878,6.004499l.197823.478487c.36719.68359,3.33581,4.757526,4.552504,4.993165l6.963355,3.04519l25.716062,11.317871M163.943123,428.047556L279.844421,288.377538l84.475541.697648-.317962,234.01439-131.079571.000001ZM368.46479,289.075187l22.866146.672817L386.7695,336.957c-.38672,4.4453,2.453352,6.886147,6.843952,7.761147l52.866281,11.519067-5.974614,23.678083-56.307636,143.349931-15.779994-.175652ZM388.298104,523.07197l34.102124-86.201291l89.322681,86.13716ZM443.09603,383.393057l92.82186,95.287566-68.54661-13.200517-12.643125-2.511333-30.698487-29.937783" transform="matrix(-1.11594 0 0 1.049784 741.208855-19.939378)" fill="url(#eWj3D8GV2U65-fill)"/></g></g></g><path d="M35.479346,291.022534l55.646892-21.103378-55.646892,21.103378Z" transform="translate(-.019999 0)" fill="none" stroke="#1d1d1d" stroke-width="3"/><path d="M97.600001,263.265248l-6.614235,6.760753l3.516429-3.286187l3.097806-3.474566Z" transform="translate(.000001 0)" fill="none" stroke="#1d1d1d" stroke-width="3"/><path d="M97.506934,263.439782L238.689026,27.464512L97.506934,263.439782Z" transform="translate(.000001 0)" fill="none" stroke="#1d1d1d" stroke-width="3"/></svg>
