<?xml version="1.0" encoding="UTF-8"?>
<svg width="700pt" height="700pt" version="1.1" viewBox="0 0 700 700" xmlns="http://www.w3.org/2000/svg">
 <path d="m522.3 250.72-86.293-64.715-21.699-130.18c-0.66406-4.0234-4.043-7.0703-8.1367-7.2969-4.4102-0.28125-7.7695 2.4336-8.9062 6.3359l-20.633 72.363-53.863-53.863c-2.6758-2.6602-6.8242-3.3086-10.184-1.5938-3.3789 1.75-5.2656 5.4766-4.6367 9.2031l22.262 133.63c0.085937 0.50781 0.38672 0.92578 0.54297 1.3984 0.12109 0.35156 0.085938 0.71875 0.26172 1.0508l20.441 40.863-80.852 13.441c-1.8008 0.29688-3.4648 1.1367-4.7422 2.4492l-89.109 89.094c-1.9414 1.9414-2.8711 4.707-2.4844 7.4219l22.277 155.91c0 0.050782 0.050781 0.10547 0.070313 0.17578 0.015625 0.085937-0.015625 0.17578 0 0.26172 0.22656 1.1211 0.68359 2.1367 1.2773 3.0469 0.14062 0.22656 0.35156 0.40234 0.52344 0.61328 0.57812 0.73438 1.2422 1.3633 2.0312 1.8906 0.15625 0.10547 0.22656 0.28125 0.38672 0.36719 0.14062 0.085938 0.31641 0.050781 0.45312 0.12109 1.207 0.61328 2.5039 1.0508 3.9219 1.0508h200.45c3.5352 0 6.7383-2.1367 8.0859-5.4062 1.3477-3.2734 0.59375-7.0352-1.8906-9.5391l-29.715-29.609h68.074c3.5352 0 6.7383-2.1367 8.0859-5.4062 1.3477-3.2734 0.59375-7.0352-1.8906-9.5391l-68.703-68.688 24.816-31.027c1.2266-1.5586 1.8906-3.4648 1.8906-5.4609v-58.066h80.344c3.3086 0 6.3359-1.8711 7.8242-4.8281l22.277-44.539c1.9258-3.7812 0.82422-8.3672-2.5547-10.922zm-131.51-109.36 12.652-44.328 11.375 68.371zm20.02 44.801-64.891 16.223-16.223-97.336zm-160.16 330.09 69.176-27.684c1.3984-0.55859 2.6406-1.4688 3.5859-2.6406l13.457-16.816 17.484 16.977 30.188 30.188-133.89-0.007813zm126.12-96.863 52.324 52.309h-64.363l-16.711-16.555 3.1484-3.9375zm20.16-53.355-59.988 74.969-7.8047 9.6953c0 0.015626-0.015625 0.015626-0.015625 0.035157l-17.938 22.453-98.859 39.566-20.09-140.56 84.035-84.016 83.301-13.844 16.047 31.867c1.4883 2.957 4.5156 4.8125 7.8047 4.8125h13.512zm92.438-72.52h-100.55l-37.273-74.48 72.941-18.234 1.5586-0.38672 79.922 59.938z"/>
</svg>
