<svg id="eP1ltdicYqF1" xmlns="http://www.w3.org/2000/svg" xmlns:xlink="http://www.w3.org/1999/xlink" viewBox="0 0 700 700" shape-rendering="geometricPrecision" text-rendering="geometricPrecision" style="background-color:transparent"><defs><linearGradient id="eP1ltdicYqF5-fill" x1="0" y1="0.5" x2="1" y2="0.5" spreadMethod="pad" gradientUnits="objectBoundingBox" gradientTransform="translate(0 0)"><stop id="eP1ltdicYqF5-fill-0" offset="1%" stop-color="#ebf6ff"/><stop id="eP1ltdicYqF5-fill-1" offset="44%" stop-color="#b8dbfa"/><stop id="eP1ltdicYqF5-fill-2" offset="100%" stop-color="#546baa"/></linearGradient></defs><g transform="matrix(1.496201 0 0 1.349905-173.676877-106.22937)"><g><g transform="translate(0 37.057042)"><path d="M444.488195,379.488662l5.262085-21.969661L507.54,369.07c.55859.12109,1.1367.17578,1.7148.17578c3.9531,0,5.224063,1.203203,6.204563-2.769397l25.15714-95.993787c.73438-2.9766.693681-4.375454-1.474299-6.547354L505.487546,249.19464l-.855033-10.762854L490.94206,86.880399c-.52344-4.1836.28984-7.869219-3.91326-8.131019-4.5312-.50781-3.887233,2.032594-4.922333,6.106794l-16.934882,84.439097-40.282051-80.286408c-1.8711-3.3086-4.033392-11.618928-7.744292-10.814228-3.7266.80469-3.954687,2.620152-4.302387,6.420952L391.61776,285.35472L281.759,283.49538c-2.5898,0-5.0586,1.1367-6.7188,3.1484l-113.75,136.5c-2.5898,3.1328-2.7109,7.6133-.29688,10.852l68.266,91c1.6641,2.2031,4.2539,3.5,7,3.5h273c3.5352,0,5.466514-1.381278,6.814114-4.650778c1.3477-3.2734-2.764445-6.965736-5.248795-9.469636l-49.535493-45.802112L532.00962,482.99548c3.5352,0,5.819551.447856,7.167151-2.821644c1.3477-3.2734-2.222922-6.882005-4.707272-9.385905M486.989601,82.207344l14.75151,162.273416-33.624329-69.98034Zm-69.419855,1.069989L492.66009,233.49212L498.0048,244.72c0,.015625.035156.015625.035156.015625l3.6211,6.3516c.36719.68359.85938,1.2969,1.3984,1.8359l34.539933,14.508053-25.942052,97.978625-121.481543-26.103991ZM163.943123,428.047556L279.844421,288.377538l84.475541.697648-.317962,234.01439-131.079571.000001ZM368.46479,289.075187l22.866146.672817L386.7695,336.957c-.38672,4.4453,2.453352,6.886147,6.843952,7.761147l52.866281,11.519067-5.974614,23.678083-56.307636,143.349931-15.779994-.175652ZM388.298104,523.07197l34.102124-86.201291l89.322681,86.13716ZM443.09603,383.393057l92.82186,95.287566-68.54661-13.200517-12.643125-2.511333-30.698487-29.937783" transform="matrix(-1.11594 0 0 1.049784 741.084598-19.924562)" fill="url(#eP1ltdicYqF5-fill)"/></g></g></g></svg>
