<?xml version="1.0" encoding="UTF-8"?>
<svg width="700pt" height="700pt" version="1.1" viewBox="0 0 700 700" xmlns="http://www.w3.org/2000/svg">
 <path d="m538.2 468.05-88.445-88.426v-22.105l57.785 11.551c0.55859 0.12109 1.1367 0.17578 1.7148 0.17578 3.9531 0 7.5078-2.6602 8.4883-6.6328l22.766-90.984c0.73438-2.9766-0.14062-6.1406-2.3086-8.3125l-21.945-21.941-2.1875-3.832-18.883-151.13c-0.52344-4.1836-3.9531-7.4023-8.1562-7.6641-4.5312-0.50781-7.9961 2.5391-9.0312 6.6133l-15.453 62.02-36.699-64.242c-1.8711-3.3086-5.7383-5.0039-9.4492-4.1992-3.7266 0.80469-6.5117 3.9531-6.8594 7.7539l-17.898 196.8h-109.88c-2.5898 0-5.0586 1.1367-6.7188 3.1484l-113.75 136.5c-2.5898 3.1328-2.7109 7.6133-0.29688 10.852l68.266 91c1.6641 2.2031 4.2539 3.5 7 3.5h273c3.5352 0 6.7383-2.1367 8.0859-5.4062 1.3477-3.2734 0.59375-7.0352-1.8906-9.5391l-30.59-30.555h47.145c3.5352 0 6.7383-2.1367 8.0859-5.4062 1.3477-3.2734 0.59375-7.0352-1.8906-9.5391zm-54.547-332.88 7.8398 62.773-16.363-28.684zm-59.203-19.234 67.586 118.3 5.9688 10.484c0 0.015625 0.035156 0.015625 0.035156 0.015625l3.6211 6.3516c0.36719 0.68359 0.85938 1.2969 1.3984 1.8359l19.266 19.266-19.531 78.086-97.879-19.566zm-245.3 313.11 106.7-128.03h78.152v210h-123.38zm202.35-128.05h8.5234l-3.2539 35.961c-0.38672 4.4453 2.6094 8.4883 7 9.3633l38.465 7.6992v50.297l-42.668 106.68h-8.0664zm26.914 210 22.801-56.926 56.91 56.926zm58.957-45.5-29.066-29.086 10.832-27.16c0.40234-1.0508 0.61328-2.1367 0.61328-3.2539v-1.6289l61.129 61.109-43.508 0.003906z"/>
</svg>
