<?xml version="1.0" encoding="UTF-8"?>
<svg width="700pt" height="700pt" version="1.1" viewBox="0 0 700 700" xmlns="http://www.w3.org/2000/svg">
 <path d="m599.93 133.28c-2.3984-2.0117-5.6719-2.5742-8.5742-1.4883l-201.51 73.289-33.652-33.652c-0.80469-0.80469-1.7852-1.4531-2.8516-1.9062-2.1367-0.89063-4.5508-0.89063-6.6836 0-1.0859 0.4375-2.0469 1.0859-2.8516 1.9062l-33.652 33.652-201.52-73.309c-2.9414-1.082-6.1953-0.50781-8.5742 1.5078-2.3984 1.9766-3.5547 5.0898-3.0469 8.1523l18.797 112.77c0.45312 2.7656 2.2031 5.1289 4.7266 6.3867l70.352 35.176v107.36c0 0.94531 0.15625 1.8711 0.4375 2.7656l37.59 112.77c1.1016 3.2891 4.0586 5.6367 7.543 5.9492 3.4609 0.38672 6.7695-1.4336 8.4297-4.4961l105.11-192.69 105.11 192.68c1.5391 2.8359 4.4961 4.5664 7.6641 4.5664 0.26172 0 0.50781 0 0.76953-0.035157 3.4648-0.31641 6.4219-2.6406 7.543-5.9492l37.59-112.77c0.29688-0.89062 0.4375-1.8203 0.4375-2.7656v-107.36l70.352-35.176c2.5195-1.2617 4.2539-3.6406 4.7266-6.3867l18.797-112.77c0.50391-3.082-0.65234-6.1953-3.0508-8.1719zm-241.18 120.03v-54.602l18.199 18.199zm-17.5 0-18.199-36.398 18.199-18.199zm-224.51-99.961 189.39 68.879 21.664 43.328-126.63 15.801-68.828-34.422zm374.89 248.38-30.801 92.363-103.16-189.12c-1.5234-2.8164-4.4805-4.5664-7.6641-4.5664s-6.1602 1.75-7.6641 4.5664l-103.16 189.12-30.801-92.363v-103.62l21.629-2.6953 102.34-12.723 3.3438-0.4375 0.42188-0.050781 6.0547 12.094c1.4883 2.957 4.5156 4.8281 7.8242 4.8281s6.3359-1.8711 7.8242-4.8281l6.0547-12.094 127.75 15.906-0.003906 103.62zm76.02-154.79-68.828 34.422-126.67-15.75 21.699-43.398 189.39-68.879z"/>
</svg>
