<svg id="e1Ncb5W4pI71" xmlns="http://www.w3.org/2000/svg" xmlns:xlink="http://www.w3.org/1999/xlink" viewBox="0 0 700 700" shape-rendering="geometricPrecision" text-rendering="geometricPrecision" style="background-color:transparent"><defs><linearGradient id="e1Ncb5W4pI72-stroke" x1="0" y1="0.5" x2="1" y2="0.5" spreadMethod="pad" gradientUnits="objectBoundingBox" gradientTransform="translate(0 0)"><stop id="e1Ncb5W4pI72-stroke-0" offset="0%" stop-color="#8857b4"/><stop id="e1Ncb5W4pI72-stroke-1" offset="100%" stop-color="#944ba8"/></linearGradient><linearGradient id="e1Ncb5W4pI74-fill" x1="0.097411" y1="0.731157" x2="0.893191" y2="0.201339" spreadMethod="pad" gradientUnits="objectBoundingBox" gradientTransform="translate(0 0)"><stop id="e1Ncb5W4pI74-fill-0" offset="0%" stop-color="#17acda"/><stop id="e1Ncb5W4pI74-fill-1" offset="100%" stop-color="#b457b3"/></linearGradient></defs><line x1="-15.345954" y1="21.100687" x2="20.141565" y2="-50.140773" transform="translate(406.55469 189.347183)" fill="none" stroke="url(#e1Ncb5W4pI72-stroke)" stroke-width="15"/><path d="M599.93,133.28c-2.3984-2.0117-5.6719-2.5742-8.5742-1.4883l-201.51,73.289-33.652-33.652c-.80469-.80469-1.7852-1.4531-2.8516-1.9062-2.1367-.89063-4.5508-.89063-6.6836,0-1.0859.4375-2.0469,1.0859-2.8516,1.9062l-33.652,33.652-201.52-73.309c-2.9414-1.082-6.1953-.50781-8.5742,1.5078-2.3984,1.9766-3.5547,5.0898-3.0469,8.1523l18.797,112.77c.45312,2.7656,2.2031,5.1289,4.7266,6.3867l70.352,35.176v107.36c0,.94531.15625,1.8711.4375,2.7656l37.59,112.77c1.1016,3.2891,4.0586,5.6367,7.543,5.9492c3.4609.38672,6.7695-1.4336,8.4297-4.4961l105.11-192.69l105.11,192.68c1.5391,2.8359,4.4961,4.5664,7.6641,4.5664.26172,0,.50781,0,.76953-.035157c3.4648-.31641,6.4219-2.6406,7.543-5.9492l37.59-112.77c.29688-.89062.4375-1.8203.4375-2.7656v-107.36l70.352-35.176c2.5195-1.2617,4.2539-3.6406,4.7266-6.3867l18.797-112.77c.50391-3.082-.65234-6.1953-3.0508-8.1719ZM358.75,253.31v-54.602l18.199,18.199Zm-17.5,28.051l-35.12-59.133l35.12-23.515ZM116.74,153.349l189.39,68.879l35.12,59.133-132.8702,6.553735L132.336,246.935Zm374.89,248.38l-30.801,92.363-103.16-189.12c-1.5234-2.8164-3.197109,6.242254-4.3268,10.443015s-1.8334,9.191785-3.3373,12.008185l-105.1152,192.69L208.3798,401.729v-103.62-10.194265L341.25,281.361h-.439269.439269l.91918,12.935419c1.4883,2.957,4.5156,4.8281,7.8242,4.8281s6.3359-1.8711,7.8242-4.8281l6.0547-12.094l127.75,15.906-.003906,103.62Zm76.02-154.79l-68.828,34.422-126.67-15.75l21.699-43.398l189.39-68.879Z" transform="translate(-.00087 0)" fill="url(#e1Ncb5W4pI74-fill)"/><line x1="-36.603429" y1="-80.922719" x2="36.603429" y2="80.922719" transform="translate(309.284534 220.129129)" fill="none" stroke="#797979" stroke-width="6" stroke-dasharray="15,10"/><line x1="-106.235147" y1="67.785606" x2="36.603429" y2="80.922719" transform="translate(309.284534 220.129129)" fill="none" stroke="#797979" stroke-width="6" stroke-dasharray="15,10"/><line x1="46.908396" y1="99.437753" x2="36.603429" y2="80.922719" transform="translate(309.284534 220.129129)" fill="none" stroke="#797979" stroke-width="6" stroke-dasharray="15,10"/><line x1="-64.395704" y1="298.530971" x2="36.603429" y2="80.922719" transform="translate(309.284534 220.129129)" fill="none" stroke="#797979" stroke-width="6" stroke-dasharray="15,10"/><line x1="-64.395704" y1="298.530971" x2="36.603429" y2="80.922719" transform="translate(309.284534 220.129129)" fill="none" stroke="#797979" stroke-width="6" stroke-dasharray="15,10"/></svg>
