<svg id="eRiPOL3GX2F1" xmlns="http://www.w3.org/2000/svg" xmlns:xlink="http://www.w3.org/1999/xlink" viewBox="0 0 700 700" shape-rendering="geometricPrecision" text-rendering="geometricPrecision" style="background-color:transparent"><defs><linearGradient id="eRiPOL3GX2F2-stroke" x1="0" y1="0.5" x2="1" y2="0.5" spreadMethod="pad" gradientUnits="objectBoundingBox" gradientTransform="translate(0 0)"><stop id="eRiPOL3GX2F2-stroke-0" offset="0%" stop-color="#8857b4"/><stop id="eRiPOL3GX2F2-stroke-1" offset="100%" stop-color="#944ba8"/></linearGradient><linearGradient id="eRiPOL3GX2F3-stroke" x1="0" y1="0.5" x2="1" y2="0.5" spreadMethod="pad" gradientUnits="objectBoundingBox" gradientTransform="translate(0 0)"><stop id="eRiPOL3GX2F3-stroke-0" offset="0%" stop-color="#5784b4"/><stop id="eRiPOL3GX2F3-stroke-1" offset="100%" stop-color="#9961d8"/></linearGradient><linearGradient id="eRiPOL3GX2F4-fill" x1="0.097411" y1="0.731157" x2="0.893191" y2="0.201339" spreadMethod="pad" gradientUnits="objectBoundingBox" gradientTransform="translate(0 0)"><stop id="eRiPOL3GX2F4-fill-0" offset="0%" stop-color="#17acda"/><stop id="eRiPOL3GX2F4-fill-1" offset="100%" stop-color="#b457b3"/></linearGradient></defs><line x1="-15.345954" y1="21.100687" x2="20.141565" y2="-50.140773" transform="translate(406.55469 189.347183)" fill="none" stroke="url(#eRiPOL3GX2F2-stroke)" stroke-width="15"/><line x1="-57.769252" y1="32.759918" x2="-93.08813" y2="-42.767326" transform="translate(367.923382 177.687952)" fill="none" stroke="url(#eRiPOL3GX2F3-stroke)" stroke-width="15"/><path d="M599.93,133.28c-2.3984-2.0117-5.6719-2.5742-8.5742-1.4883l-201.51,73.289-33.652-33.652c-.80469-.80469-1.7852-1.4531-2.8516-1.9062-2.1367-.89063-4.5508-.89063-6.6836,0-1.0859.4375-2.0469,1.0859-2.8516,1.9062l-33.652,33.652-201.52-73.309c-2.9414-1.082-6.1953-.50781-8.5742,1.5078-2.3984,1.9766-3.5547,5.0898-3.0469,8.1523l18.797,112.77c.45312,2.7656,2.2031,5.1289,4.7266,6.3867l70.352,35.176v107.36c0,.94531.15625,1.8711.4375,2.7656l37.59,112.77c1.1016,3.2891,4.0586,5.6367,7.543,5.9492c3.4609.38672,6.7695-1.4336,8.4297-4.4961l105.11-192.69l105.11,192.68c1.5391,2.8359,4.4961,4.5664,7.6641,4.5664.26172,0,.50781,0,.76953-.035157c3.4648-.31641,6.4219-2.6406,7.543-5.9492l37.59-112.77c.29688-.89062.4375-1.8203.4375-2.7656v-107.36l70.352-35.176c2.5195-1.2617,4.2539-3.6406,4.7266-6.3867l18.797-112.77c.50391-3.082-.65234-6.1953-3.0508-8.1719ZM358.75,253.31v-54.602l18.199,18.199Zm-17.5,0l-18.199-36.398l18.199-18.199ZM116.74,153.349l189.39,68.879l21.664,43.328-126.63,15.801-68.828-34.422Zm374.89,248.38l-30.801,92.363-103.16-189.12c-1.5234-2.8164-4.4805-4.5664-7.6641-4.5664s-6.1602,1.75-7.6641,4.5664l-103.16,189.12-30.801-92.363v-103.62l21.629-2.6953l102.34-12.723l3.3438-.4375.42188-.050781l6.0547,12.094c1.4883,2.957,4.5156,4.8281,7.8242,4.8281s6.3359-1.8711,7.8242-4.8281l6.0547-12.094l127.75,15.906-.003906,103.62Zm76.02-154.79l-68.828,34.422-126.67-15.75l21.699-43.398l189.39-68.879Z" transform="translate(-.00087 0)" fill="url(#eRiPOL3GX2F4-fill)"/></svg>
