<svg id="e6tj1ZQ0nhE1" xmlns="http://www.w3.org/2000/svg" xmlns:xlink="http://www.w3.org/1999/xlink" viewBox="0 0 511 511" shape-rendering="geometricPrecision" text-rendering="geometricPrecision" style="background-color:transparent"><defs><linearGradient id="e6tj1ZQ0nhE3-fill" x1="0" y1="0.5" x2="1" y2="0.5" spreadMethod="pad" gradientUnits="objectBoundingBox" gradientTransform="translate(0 0)"><stop id="e6tj1ZQ0nhE3-fill-0" offset="0%" stop-color="#117d9e"/><stop id="e6tj1ZQ0nhE3-fill-1" offset="100%" stop-color="#8ad9f8"/></linearGradient></defs><path style="mix-blend-mode:multiply" d="M509.807,159.545c.016-.026.036-.047.052-.073.033-.053.058-.108.09-.162.078-.131.153-.263.222-.399.047-.091.09-.183.132-.275.06-.129.116-.259.169-.391.042-.105.08-.211.116-.317.041-.121.081-.242.116-.366.035-.122.066-.244.094-.367.026-.111.05-.223.071-.336.025-.138.046-.275.063-.413.013-.103.026-.207.034-.312.013-.149.019-.298.023-.447.002-.064.01-.126.01-.19c0-.038-.005-.076-.006-.114-.002-.141-.011-.282-.021-.423-.008-.114-.015-.228-.029-.341-.014-.116-.034-.231-.053-.346-.022-.132-.043-.265-.071-.394-.021-.094-.048-.187-.072-.28-.038-.144-.075-.288-.12-.428-.028-.086-.062-.17-.093-.255-.052-.141-.102-.281-.162-.418-.041-.095-.089-.186-.135-.279-.059-.12-.115-.241-.18-.358-.062-.112-.131-.219-.199-.328-.058-.093-.113-.187-.175-.276-.082-.119-.172-.234-.261-.349-.058-.075-.113-.151-.174-.224-.093-.111-.193-.216-.293-.322-.068-.072-.134-.146-.205-.216-.093-.091-.192-.177-.29-.264-.09-.08-.18-.16-.274-.235-.086-.069-.176-.133-.265-.198-.117-.086-.234-.169-.356-.248-.031-.02-.059-.044-.091-.063l-64-40c-.044-.027-.089-.048-.133-.074-.089-.053-.176-.107-.267-.156-.056-.03-.112-.058-.168-.086-.09-.046-.181-.088-.273-.13-.073-.034-.145-.069-.22-.101-.052-.022-.104-.041-.156-.061-.122-.048-.244-.092-.367-.133-.045-.015-.087-.035-.133-.049-.014-.004-.028-.007-.041-.011-.044-.013-.088-.024-.132-.037-.143-.042-.286-.077-.43-.11-.055-.012-.109-.029-.164-.04-.036-.007-.072-.01-.108-.017-.146-.027-.292-.049-.439-.068-.105-.013-.21-.026-.316-.035-.129-.011-.257-.017-.386-.021-.123-.004-.246-.007-.368-.005-.112.002-.223.008-.335.015-.044.003-.088.003-.132.006-.029.002-.058.001-.087.004-.061.006-.121.017-.181.024-.103.012-.206.028-.309.044-.034.005-.068.009-.101.015-.046.008-.092.011-.137.02-.056.011-.11.027-.165.039-.103.022-.205.049-.308.075-.128.033-.255.067-.38.107-.11.035-.218.074-.326.114-.08.029-.161.054-.239.086-.033.013-.065.031-.098.045-.117.049-.231.104-.345.159-.078.038-.158.073-.235.113-.008.004-.017.007-.025.012L321.404,169.984l-68.1-83.234c-.003-.004-.007-.007-.01-.011-.021-.026-.043-.051-.065-.077-.053-.063-.111-.12-.166-.181-.106-.118-.212-.237-.326-.348-.066-.065-.139-.124-.208-.186-.109-.099-.216-.199-.331-.292-.109-.087-.225-.166-.338-.248-.009-.006-.017-.013-.026-.019-.075-.053-.147-.111-.224-.162-.115-.076-.238-.142-.358-.212-.091-.053-.18-.11-.273-.159-.112-.059-.23-.108-.346-.161-.107-.049-.212-.103-.321-.147-.104-.042-.212-.075-.319-.112-.127-.045-.253-.092-.382-.13-.016-.005-.032-.012-.048-.016-.114-.033-.228-.053-.342-.08-.103-.024-.205-.052-.31-.072-.044-.008-.087-.018-.131-.026L24.818,44.114c-.074-.013-.147-.017-.221-.028-.135-.02-.269-.039-.404-.052-.124-.012-.246-.018-.369-.023-.117-.005-.234-.009-.351-.009-.134,0-.267.005-.4.013-.108.006-.217.014-.325.024-.134.013-.267.031-.399.052-.11.017-.219.036-.328.057-.126.025-.25.054-.374.086-.115.029-.23.061-.344.096-.115.035-.227.073-.34.114-.119.043-.236.088-.353.137-.108.045-.213.094-.319.144-.114.054-.227.11-.339.17-.109.059-.215.121-.32.185-.101.061-.202.123-.301.189-.116.078-.228.16-.339.244-.058.044-.12.082-.177.128-.027.021-.049.045-.076.067-.112.092-.219.19-.326.289-.077.071-.156.141-.23.215-.096.096-.185.198-.276.299-.075.084-.152.166-.222.252-.08.098-.154.202-.229.305-.07.095-.142.189-.207.286-.068.103-.129.21-.192.317-.062.104-.126.206-.182.312s-.105.217-.156.326c-.053.113-.108.225-.155.34-.044.106-.08.216-.119.325-.044.124-.09.248-.127.374-.031.104-.056.212-.083.319-.034.136-.068.271-.094.408-.007.035-.024.104-.024.104s-.018.151-.029.227c-.019.132-.038.264-.05.397-.012.124-.018.247-.023.37-.005.118-.009.236-.009.354c0,.132.006.263.013.394.006.111.014.221.025.332.013.132.031.262.051.392.017.112.037.224.059.335.025.124.053.246.085.368.03.117.062.233.097.349.035.113.073.225.113.336.043.119.088.238.137.355.045.107.093.213.143.318.054.114.11.227.17.339.058.109.121.214.184.32.061.102.123.203.19.302.077.115.159.226.242.336.044.059.082.121.129.179l47.852,59.815h-57.996c-.068,0-.133.008-.2.01-.138.004-.276.01-.414.021-.121.01-.241.024-.36.039-.117.015-.234.033-.35.053-.132.023-.262.051-.391.081-.104.024-.207.051-.31.08-.133.037-.263.077-.393.122-.101.034-.201.071-.301.11-.123.048-.244.098-.363.152-.106.048-.211.099-.315.152-.107.055-.213.111-.317.171-.111.063-.22.13-.328.199-.093.06-.184.121-.274.184-.11.077-.217.158-.323.242-.086.068-.169.137-.251.208-.099.086-.197.174-.292.265-.087.083-.17.168-.253.255-.082.086-.162.174-.24.265-.091.106-.178.215-.263.326-.041.053-.085.1-.125.154-.023.032-.041.065-.063.097-.086.122-.165.247-.244.373-.053.086-.108.172-.157.259-.069.123-.132.249-.195.376-.048.097-.097.194-.141.292-.052.118-.097.239-.143.36-.042.111-.086.222-.123.335-.036.111-.066.225-.097.339-.035.126-.07.252-.097.379-.023.105-.039.212-.058.318-.024.139-.048.278-.064.418-.012.101-.018.203-.025.306-.011.147-.02.295-.022.442-.003.039-.008.077-.008.117c0,.068.008.133.01.2.004.138.009.276.021.414.01.121.024.24.039.36.015.118.033.235.054.351.023.131.051.261.081.39.025.105.051.209.08.312.037.132.077.261.121.39.035.103.072.204.112.305.047.121.097.241.15.359.049.108.101.215.154.321.054.105.109.209.167.311.064.113.133.224.203.334.058.091.118.181.18.269.078.111.16.22.245.327.067.084.135.167.205.248.086.1.175.198.268.294.082.086.167.169.254.251s.174.163.266.242c.106.091.215.177.325.262.053.041.1.085.155.125L175.394,254.874L144.104,458.26c-.004.024-.007.048-.011.073l-.004.024c-.005.031-.005.061-.009.092-.03.213-.054.426-.066.638-.005.084-.002.166-.004.249-.003.159-.007.318-.001.476.005.124.019.245.03.367.011.116.018.232.034.347.02.143.049.284.077.425.019.094.034.189.057.282.034.144.077.284.119.425.027.091.052.182.083.272.045.13.097.257.149.385.04.099.078.199.123.296.05.109.106.215.161.321.058.112.114.224.177.333.051.088.108.172.162.258.076.12.152.24.236.356.053.073.11.143.165.214.093.12.186.239.287.354.06.068.125.132.187.199.102.108.203.216.312.318.081.076.168.147.253.22.096.083.191.167.292.245.123.096.253.183.383.271.071.048.138.099.21.144.181.114.369.218.561.317.027.014.051.03.078.044.003.001.006.002.009.004.253.126.514.238.783.336.067.024.135.041.202.063.184.061.37.119.561.166.126.031.252.053.378.078.094.018.185.043.281.058.032.005.063.003.095.007.347.049.694.082,1.04.082.004,0,.008-.001.011-.001.001,0,.003,0,.004,0c.31,0,.615-.026.918-.064.06-.008.119-.015.179-.024.619-.092,1.217-.261,1.783-.498.055-.023.109-.045.163-.069.274-.122.541-.258.798-.412.047-.028.091-.06.137-.089.216-.136.424-.283.625-.439.06-.046.12-.091.178-.139.223-.185.435-.384.636-.595.05-.053.098-.108.147-.162.202-.224.394-.458.569-.706.005-.008.012-.015.017-.022.189-.272.356-.56.509-.858.012-.024.029-.045.041-.069L212.99,353.289l181.501-78.913c.049-.021.093-.048.141-.07.145-.067.288-.137.429-.213.013-.007.027-.013.041-.02.023-.012.046-.021.069-.034.052-.029.1-.064.152-.094.113-.067.225-.137.334-.21.072-.048.145-.093.215-.143.027-.019.052-.041.079-.061.082-.06.162-.123.241-.187.019-.015.041-.025.06-.041s.036-.034.055-.05c.07-.058.137-.117.204-.178.066-.06.13-.122.194-.183.004-.004.008-.007.012-.011.028-.027.058-.05.086-.078.021-.021.04-.043.061-.064.05-.052.099-.104.148-.157.062-.068.121-.138.181-.208.058-.067.118-.133.173-.202.032-.04.062-.08.093-.12.025-.032.05-.064.074-.096.026-.036.049-.074.075-.11.008-.011.015-.023.023-.034.058-.082.118-.163.172-.247.017-.027.034-.053.051-.08.058-.093.111-.189.165-.284.051-.09.104-.178.151-.269.002-.004.005-.008.007-.013.007-.014.014-.028.021-.042.054-.107.102-.219.151-.329.04-.09.083-.179.119-.271.006-.015.013-.03.019-.045.046-.118.084-.239.124-.36.006-.017.012-.034.018-.051.007-.022.019-.042.026-.064l.03-.096c.001-.002.001-.004.002-.006l33.681-106.656h71.113c.005,0,.01.001.014.001.017,0,.034-.003.051-.003.277-.002.549-.02.818-.051.076-.009.151-.023.226-.034.218-.032.432-.071.643-.121.078-.018.155-.039.232-.06.216-.058.427-.126.634-.203.065-.024.131-.046.196-.072.269-.108.532-.227.785-.364.006-.003.012-.008.018-.011.239-.131.468-.277.691-.433.084-.059.165-.122.246-.184.149-.113.293-.231.432-.354.08-.071.16-.141.237-.216.185-.178.361-.364.526-.56.019-.022.039-.041.058-.063.188-.232.358-.476.519-.726Zm-82.993-28.782l-38.29,121.253-57.435-70.199l95.725-51.054ZM41.816,62.386L237.117,97.261l-55.8,139.5L41.816,62.386ZM374.591,258.674L194.256,244.802l55.488-138.719L374.591,258.674ZM212.629,337.089L193.3,259.773l167.518,12.886-148.189,64.43Zm-13.078,9.535l-33.364,66.728l19.065-123.924l14.299,57.196ZM142.792,212.618L30.564,130.997h46.932l65.296,81.621Zm300.944-85.629l33.613,21.008h-40.247l6.634-21.008Z" fill="url(#e6tj1ZQ0nhE3-fill)"/></svg>
