<svg id="eEie9bHpm3w1" xmlns="http://www.w3.org/2000/svg" xmlns:xlink="http://www.w3.org/1999/xlink" viewBox="0 0 511.999 511.999" shape-rendering="geometricPrecision" text-rendering="geometricPrecision" style="background-color:transparent"><defs><linearGradient id="eEie9bHpm3w4-fill" x1="0.558171" y1="0.074309" x2="0.771309" y2="0.776895" spreadMethod="pad" gradientUnits="objectBoundingBox" gradientTransform="translate(0 0)"><stop id="eEie9bHpm3w4-fill-0" offset="0%" stop-color="#b457b3"/><stop id="eEie9bHpm3w4-fill-1" offset="100%" stop-color="#17acda"/></linearGradient></defs><g><g><path d="M509.384,61.784c-2.501-2.463-6.227-3.2-9.476-1.873L5.455,261.892c-3.186,1.302-5.316,4.345-5.448,7.785s1.759,6.638,4.837,8.18l124.677,62.456l32.758,87.556c1.287,3.439,4.57,5.699,8.214,5.699.131,0,.263-.002.394-.008c2.062-.092,3.95-.918,5.419-2.224l.015.018l48.644-43.226l127.134,63.683c1.233.618,2.579.929,3.929.929c1.064,0,2.13-.194,3.144-.584c2.302-.883,4.125-2.695,5.024-4.991L511.396,71.23c1.278-3.268.488-6.983-2.012-9.446ZM470.815888,90.548118L273.127,225.615L75.656,252.167L470.815888,90.548118ZM481.087,100.513L288.376385,268.075796L272.348,247.93L481.087,100.513ZM38.144,274.915l205.361-27.614-105.824,77.476-99.537-49.862Zm141.737,90.65263L169.222,396.358l-21.418-57.245L272.348,247.93l16.028385,20.145796L179.881,365.56763c-1.197,1.11.432-1.574,0,0Zm6.933,32.98537l7.146-25.959l14.112,7.068-21.258,18.891Zm-6.933-32.98537l108.495385-97.491834L352.099,451.811L179.881,365.56763ZM358.083,414.656L300.495728,257.551505L481.087,100.513L358.083,414.656Z" transform="matrix(-1 0 0 1 511.999862 0)" fill="url(#eEie9bHpm3w4-fill)"/></g></g><line x1="-132.426168" y1="-110.622931" x2="168.779832" y2="154.431699" transform="translate(163.33903 211.135931)" fill="none" stroke="#797979" stroke-width="4" stroke-dasharray="7,4"/><line x1="-7.367168" y1="240.675069" x2="168.779832" y2="154.431699" transform="translate(163.33903 211.135931)" fill="none" stroke="#797979" stroke-width="4" stroke-dasharray="7,4"/></svg>
