<svg id="eMtKaIiqsH01" xmlns="http://www.w3.org/2000/svg" xmlns:xlink="http://www.w3.org/1999/xlink" viewBox="0 0 310.09 203.53" shape-rendering="geometricPrecision" text-rendering="geometricPrecision" style="background-color:transparent"><rect width="310.0941" height="203.53" rx="0" ry="0" transform="translate(.0164 0)" fill="#fbfeff" stroke-width="0"/><g transform="translate(-219.95-430.6)"><g transform="matrix(2.8449 0 0 2.9076-1304.9-535.77)"><rect width="11" height="70" rx="0" ry="0" transform="translate(585 332.36)" fill="#b457b3"/><rect width="109" height="12" rx="0" ry="0" transform="translate(536 361.36)" fill="#b457b3"/><g transform="translate(61-105)"><path d="M487,437.36l35,25v-25h-35" transform="translate(-.121073 0)" fill="#17acda"/><path d="M475,443.36v21h31l-31-21" fill="#17acda"/><path d="M475,437.36v3l36,24h5l-41-27" fill="#b457b3"/></g><g transform="matrix(-1 0 0 1 1120-105)"><path d="M487,437.36l35,25v-25h-35" transform="translate(.121073 0)" fill="#17acda"/><path d="M475,443.36v21h31l-31-21" transform="translate(.121073 0)" fill="#17acda"/><path d="M475,437.36v3l36,24h5l-41-27" fill="#b457b3"/></g><g transform="matrix(-1 0 0-1 1120 839.72)"><path d="M487,437.36l35,25v-25h-35" fill="#17acda"/><path d="M475,443.36v21h31l-31-21" fill="#17acda"/><path d="M475,437.36v3l36,24h5l-41-27" fill="#b457b3"/></g><g transform="matrix(-1 0 0 1 1058-62)"><path d="M487,437.36l35,25v-25h-35" fill="#17acda"/><path d="M475,443.36v21h31l-31-21" fill="#17acda"/><path d="M475,437.36v3l36,24h5l-41-27" fill="#b457b3"/></g></g></g></svg>
