<svg id="eCNro039E6W1" xmlns="http://www.w3.org/2000/svg" xmlns:xlink="http://www.w3.org/1999/xlink" viewBox="0 0 150 150" shape-rendering="geometricPrecision" text-rendering="geometricPrecision" style="background-color:transparent"><defs><linearGradient id="eCNro039E6W2-fill" x1="0" y1="0.5" x2="1" y2="0.5" spreadMethod="pad" gradientUnits="objectBoundingBox" gradientTransform="translate(0 0)"><stop id="eCNro039E6W2-fill-0" offset="0%" stop-color="#17acda"/><stop id="eCNro039E6W2-fill-1" offset="100%" stop-color="#b457b3"/></linearGradient></defs><path d="M603.42,385c0-.85938.015625-1.6445-.24609-2.4688-.085937-.29688.035156-.59375-.085937-.875-.22656-.55859-.76953-.85938-1.1016-1.3281-.31641-.48828-.38672-1.0859-.80469-1.5039l-245-245c-2.5039-2.5039-6.2812-3.2188-9.5391-1.8906-3.2539,1.3281-5.3906,4.5312-5.3906,8.0664l-.000001,253.749h-17.499999v-218.749c0-3.7617-2.4141-7.1055-5.9844-8.3125-3.5547-1.1367-7.5078.035156-9.7656,3.0625l-154.88,206.5h-48.125c-3.5352,0-6.7383,2.1367-8.0859,5.4062-1.3477,3.2734-.59375,7.0352,1.8906,9.5391l140,140c1.6445,1.6289,3.8672,2.5547,6.1953,2.5547h206.383017c2.3281,0-1.644498-15.872078.000002-17.500998L596.207535,393.749c.42188-.42187,5.473028-3.5693,5.789438-4.0576.33203-.48828.85938-.78906,1.1016-1.3281.12109-.28125,0-.59375.085938-.875.23047-.84375.23047-1.6289.23047-2.4883ZM341.251983,140.000004L596.207536,393.749h-254.955554ZM306.25,201.249v175h-131.25Zm145.13,315h-202.76l-122.5-122.5h470.087536Z" transform="matrix(.277863 0 0 0.311561-22.206246-28.598252)" fill="url(#eCNro039E6W2-fill)"/><line x1="-0.887098" y1="-47.621966" x2="-0.887098" y2="30.610155" transform="translate(74.26711 62.672792)" fill="none" stroke="#797979" stroke-width="3" stroke-dasharray="7,3"/><line x1="70.796384" y1="30.141598" x2="-2.203994" y2="30.141598" transform="translate(74.079256 62.722076)" fill="none" stroke="#797979" stroke-width="3" stroke-dasharray="7,3"/><line x1="69.190658" y1="31.405788" x2="28.948445" y2="74.228695" transform="translate(74.26711 62.672792)" fill="none" stroke="#797979" stroke-width="3" stroke-dasharray="7,3"/></svg>
