<svg id="e6VWlzx2BCJ1" xmlns="http://www.w3.org/2000/svg" xmlns:xlink="http://www.w3.org/1999/xlink" viewBox="0 0 150 150" shape-rendering="geometricPrecision" text-rendering="geometricPrecision" style="background-color:transparent"><defs><linearGradient id="e6VWlzx2BCJ2-fill" x1="0" y1="0.5" x2="1" y2="0.5" spreadMethod="pad" gradientUnits="objectBoundingBox" gradientTransform="translate(0 0)"><stop id="e6VWlzx2BCJ2-fill-0" offset="0%" stop-color="#17acda"/><stop id="e6VWlzx2BCJ2-fill-1" offset="100%" stop-color="#b457b3"/></linearGradient></defs><path d="M603.42,385c0-.85938.015625-1.6445-.24609-2.4688-.085937-.29688.035156-.59375-.085937-.875-.22656-.55859-.76953-.85938-1.1016-1.3281-.31641-.48828-.38672-1.0859-.80469-1.5039l-245-245c-2.5039-2.5039-6.2812-3.2188-9.5391-1.8906-3.2539,1.3281-5.3906,4.5312-5.3906,8.0664v236.25h-17.5v-201.25c0-3.7617-2.4141-7.1055-5.9844-8.3125-3.5547-1.1367-7.5078.035156-9.7656,3.0625l-154.88,206.5h-48.125c-3.5352,0-6.7383,2.1367-8.0859,5.4062-1.3477,3.2734-.59375,7.0352,1.8906,9.5391l140,140c1.6445,1.6289,3.8672,2.5547,6.1953,2.5547h210c2.3281,0,4.5508-.92578,6.1953-2.5547l140-140c.42188-.42187.48828-1.0156.80469-1.5039.33203-.48828.85938-.78906,1.1016-1.3281.12109-.28125,0-.59375.085938-.875.23047-.84375.23047-1.6289.23047-2.4883ZM358.75,161.12L573.88,376.25h-215.13Zm-52.5,40.129v175h-131.25Zm145.13,315h-202.76l-122.5-122.5h447.76Z" transform="matrix(.277863 0 0 0.311561-22.206246-28.598252)" fill="url(#e6VWlzx2BCJ2-fill)"/></svg>
