<svg id="ewAk4uYJVai1" xmlns="http://www.w3.org/2000/svg" xmlns:xlink="http://www.w3.org/1999/xlink" viewBox="0 0 700 700" shape-rendering="geometricPrecision" text-rendering="geometricPrecision" style="background-color:transparent"><defs><linearGradient id="ewAk4uYJVai5-fill" x1="0.422631" y1="0.771223" x2="1" y2="0.175611" spreadMethod="pad" gradientUnits="objectBoundingBox" gradientTransform="translate(0 0)"><stop id="ewAk4uYJVai5-fill-0" offset="0%" stop-color="#b457b3"/><stop id="ewAk4uYJVai5-fill-1" offset="100%" stop-color="#117d9e"/></linearGradient></defs><g transform="matrix(1.496201 0 0 1.349905-173.676877-106.22937)"><g><g transform="translate(0 37.057042)"><path d="M444.488195,379.488662l5.262085-21.969661L507.54,369.07c.55859.12109,1.1367.17578,1.7148.17578c3.9531,0,5.224063,1.203203,6.204563-2.769397l25.15714-95.993787c.73438-2.9766.693681-4.375454-1.474299-6.547354l-33.476928-14.728296-1.032763-10.77516L490.94206,86.880399c-.52344-4.1836.28984-7.869219-3.91326-8.131019-4.5312-.50781-3.887233,2.032594-4.922333,6.106794l-17.498394,86.723272-42.116527-82.865781c0,0-1.22057-2.371595-2.309649-4.4877-.877247-1.704512-1.66918-3.243255-1.66918-3.243255s-1.37915-2.698563-1.367475-2.699404c-3.7266.80469-3.954687,2.531481-4.302387,6.332281L391.61776,285.35472L281.759,283.49538c-2.5898,0-5.0586,1.1367-6.7188,3.1484l-113.75,136.5c-2.5898,3.1328-2.7109,7.6133-.29688,10.852l68.266,91c1.6641,2.2031,4.2539,3.5,7,3.5h273c3.5352,0,5.466514-1.381278,6.814114-4.650778c1.3477-3.2734-2.764445-6.965736-5.248795-9.469636l-49.535493-45.802112L532.00962,482.99548c3.5352,0,5.819551.447856,7.167151-2.821644c1.3477-3.2734-2.222922-6.882005-4.707272-9.385905M486.989601,82.207344l14.75151,162.273416-3.337135-6.538854-3.414293-6.690052-12.883216-25.243692-14.632932-28.790815Zm51.765266,182.380271l-27.09753,100.822188-121.481543-26.103991L417.145242,78.283306v.014113l1.367475,2.685291l1.66918,3.243255l2.309649,4.4877l42.116527,82.865781l2.865462,5.637901l14.632932,28.790815l12.883216,25.243692l3.414293,6.690052c0,.015625,3.320898,6.538854,3.320898,6.538854h.016237c.36719.68359,2.707472,4.490547,3.924166,4.726186l7.575456,3.33746l25.901471,11.390836M163.943123,428.047556L279.844421,288.377538l84.475541.697648v233.932653l-131.397533.081738Zm200.37684-138.97237l27.010973.672818L386.7695,336.957c-.38672,4.4453,2.453352,6.886147,6.843952,7.761147l52.866281,11.519067-5.974614,23.678083-56.307636,143.349931-19.877521-.257389ZM388.298104,523.07197l34.102124-86.201291l89.322681,86.13716ZM443.09603,383.393057l92.82186,95.287566-68.54661-13.200517-12.643125-2.511333-30.698487-29.937783" transform="matrix(-1.11594 0 0 1.049784 741.208855-19.831075)" fill="url(#ewAk4uYJVai5-fill)"/></g></g></g><g transform="translate(.000001 0)"><path d="M35.479346,291.022534l57.26349-22.376506-57.26349,22.376506Z" transform="translate(-.019999 0)" fill="none" stroke="#797979" stroke-width="2" stroke-miterlimit="1" stroke-dasharray="5"/><path d="M97.600001,263.265248l-6.614235,6.760753" transform="translate(-1.273555 1.404177)" fill="none" stroke="#797979" stroke-width="3" stroke-dasharray="5"/><path d="M98.487926,262.555989l140.2011-235.091477-140.2011,235.091477Z" transform="translate(.000001 0)" fill="none" stroke="#797979" stroke-width="2" stroke-miterlimit="3" stroke-dasharray="5"/><path d="M327.02624,326.675001l2.973758,331.50799-2.973758-331.50799Z" transform="translate(.000001 0)" fill="none" stroke="#797979" stroke-width="2" stroke-miterlimit="3" stroke-dasharray="5"/></g></svg>
